# Blender v2.81 (sub 16) OBJ File: 'trunk.blend'
# www.blender.org
mtllib tree_02.mtl
o Trunk.001_Cylinder.001
v -0.036197 0.016311 -0.586479
v 0.209044 0.016311 -0.468377
v 0.269614 0.016311 -0.203004
v 0.089828 2.447823 -1.458727
v 0.099902 0.016311 0.009808
v -0.172296 0.016311 0.009808
v -0.342008 0.016311 -0.203004
v -0.180331 2.437969 -1.453858
v -0.281438 0.016311 -0.468377
v -0.037687 2.439587 -1.614897
v 0.026217 2.327871 -1.301744
v -0.098611 2.327871 -1.301744
v 0.205747 2.988012 -0.262781
v 0.147078 2.982786 -0.396464
v 0.219824 2.984699 -0.470557
v 0.295143 3.007157 -0.370829
v 0.216269 3.047251 -0.423186
v 0.182990 3.034318 -0.333424
v -0.888877 3.405727 -1.015911
v -0.857693 3.459951 -0.992315
v 0.343990 3.347347 0.100966
v 0.339078 3.404419 0.040718
v 0.020687 2.455213 -1.514998
v 0.024701 2.441081 -1.373067
v -0.093119 2.439810 -1.369711
v -0.148996 2.437900 -1.568291
v 0.668710 3.611125 -2.246347
v 0.840508 3.705551 -2.125681
v 0.662699 3.779179 -2.282495
v 0.671941 3.192508 -1.597050
v 0.451564 3.102620 -1.604971
v 0.469510 3.127125 -1.758694
v 0.533234 3.200038 -1.779589
v 0.510779 3.188333 -1.649789
v 0.740660 3.200038 -1.679699
v 0.706251 3.238529 -1.830923
v -0.279257 3.778787 -2.209457
v 1.304023 3.351961 -0.961475
v 0.073787 1.244053 -1.152745
v 0.171756 1.308604 -1.252402
v 0.279250 1.279498 -1.184434
v 0.290544 1.259155 -1.054191
v 0.208632 1.248329 -0.965698
v 0.103088 1.253746 -0.961475
v 0.044800 1.301488 -1.025978
v 0.051200 1.361834 -1.246164
v -0.970071 2.356384 -1.288034
v -1.024542 2.362111 -1.378361
v -0.337351 3.247134 -0.662869
vn 0.7236 0.3749 0.5796
vn 0.5886 -0.7245 0.3586
vn -0.6334 0.4241 0.6472
vn 0.0000 -1.0000 0.0000
vn -0.1943 -0.3318 -0.9231
vn -0.9699 -0.2261 -0.0902
vn -0.7046 0.0906 0.7038
vn 0.6752 0.3209 0.6642
vn 0.9874 0.1453 -0.0629
vn 0.0000 -0.8102 0.5861
vn -0.3987 0.8392 -0.3698
vn -0.6477 0.4362 -0.6247
vn -0.5309 -0.0625 0.8452
vn -0.8015 0.5573 -0.2169
vn 0.2336 -0.5756 -0.7837
vn 0.9642 -0.1487 -0.2195
vn 0.6631 -0.5265 -0.5321
vn -0.9771 0.1449 -0.1560
vn -0.7413 0.6709 0.0204
vn 0.7207 -0.4684 0.5111
vn -0.5411 0.6388 0.5469
vn 0.0236 0.3171 0.9481
vn -0.2859 0.0071 -0.9582
vn 0.4675 -0.5962 -0.6527
vn 0.3781 -0.9141 -0.1467
vn 0.5130 0.8425 0.1647
vn 0.3826 -0.4716 -0.7945
vn 0.9613 -0.1665 -0.2194
vn 0.7196 0.3909 0.5739
vn -0.0000 0.6174 0.7866
vn -0.6515 0.5528 0.5196
vn -0.9640 0.1492 -0.2200
vn -0.4060 -0.3525 -0.8431
vn -0.3135 -0.6263 -0.7138
vn 0.6772 0.7044 0.2127
vn -0.6967 -0.6074 0.3816
vn 0.9735 -0.1124 -0.1992
vn -0.3606 -0.3284 -0.8730
vn -0.8794 0.0050 0.4761
vn 0.0000 0.3020 0.9533
vn 0.7685 0.3186 0.5549
vn 0.6239 -0.0813 -0.7773
vn 0.8635 -0.0017 -0.5043
vn -0.0239 0.8586 -0.5120
vn -0.9764 0.1451 0.1600
vn -0.6018 -0.4152 0.6822
vn 0.6412 0.4861 -0.5938
vn -0.9576 0.1660 0.2353
vn 0.4937 0.0923 -0.8647
vn 0.6845 -0.5597 0.4672
vn -0.2283 0.7340 0.6396
vn 0.6205 -0.1436 -0.7710
vn 0.8475 -0.4353 -0.3036
vn 0.6864 0.4001 0.6072
vn -0.9411 -0.1029 -0.3221
vn -0.3858 0.0926 -0.9179
vn -0.2117 0.4421 0.8716
vn -0.1716 0.5470 0.8194
vn 0.6639 -0.6937 -0.2794
vn 0.7062 -0.4506 0.5461
vn -0.4860 0.1796 -0.8553
vn -0.5751 -0.7948 -0.1938
vn -0.5683 0.6538 0.4995
vn 0.9881 -0.1135 -0.1034
vn 0.6363 0.4286 0.6414
vn -0.3454 0.5776 0.7396
vn -0.9538 0.1233 -0.2740
vn -0.5765 -0.2991 -0.7604
vn 0.6595 0.6622 -0.3557
vn -0.7306 -0.6691 0.1361
vn 0.0537 0.3051 0.9508
vn 0.5048 -0.1290 -0.8536
vn 0.4878 0.6972 -0.5254
vn -0.9447 0.0333 0.3262
vn -0.2490 0.7370 0.6284
vn -0.0317 -0.7455 -0.6658
vn 0.1789 -0.4123 -0.8933
vn -0.9338 -0.2502 -0.2556
vn -0.8430 -0.3761 0.3846
vn -0.9072 0.1525 0.3922
vn 0.2428 0.9434 0.2259
vn 0.6400 0.5175 -0.5679
vn -0.7324 0.6506 -0.2009
vn 0.6438 -0.6937 -0.3230
vn 0.0788 0.9456 -0.3156
vn 0.3765 -0.4715 -0.7974
vn 0.0630 0.6161 0.7851
vn -0.4792 -0.6000 -0.6406
usemtl Material.002
s off
f 4//1 24//1 11//1
f 11//2 16//2 13//2
f 25//3 8//3 12//3
f 7//4 9//4 2//4
f 46//5 10//5 40//5
f 8//6 46//6 45//6
f 12//7 45//7 44//7
f 42//8 11//8 43//8
f 41//9 4//9 42//9
f 11//10 14//10 12//10
f 25//11 14//11 15//11
f 15//12 14//12 17//12
f 14//13 20//13 19//13
f 18//14 22//14 17//14
f 14//15 19//15 17//15
f 13//16 22//16 21//16
f 36//17 27//17 28//17
f 34//18 27//18 33//18
f 26//19 31//19 32//19
f 4//20 30//20 24//20
f 25//21 31//21 8//21
f 24//22 31//22 25//22
f 10//23 33//23 36//23
f 23//24 35//24 4//24
f 30//25 38//25 31//25
f 33//26 37//26 34//26
f 1//27 41//27 2//27
f 2//28 42//28 3//28
f 3//29 43//29 5//29
f 5//30 44//30 6//30
f 44//31 7//31 6//31
f 45//32 9//32 7//32
f 39//33 1//33 9//33
f 46//34 40//34 39//34
f 46//35 47//35 45//35
f 39//36 47//36 48//36
f 11//37 24//37 16//37
f 9//4 1//4 2//4
f 2//4 3//4 5//4
f 5//4 6//4 2//4
f 6//4 7//4 2//4
f 46//38 26//38 10//38
f 12//39 8//39 45//39
f 11//40 12//40 44//40
f 42//41 4//41 11//41
f 41//42 23//42 4//42
f 40//43 10//43 23//43
f 24//44 25//44 15//44
f 25//45 12//45 14//45
f 14//46 18//46 49//46 20//46
f 16//47 15//47 17//47
f 18//48 21//48 22//48
f 17//49 19//49 20//49
f 13//50 16//50 22//50
f 34//51 30//51 28//51
f 29//52 28//52 27//52
f 35//53 36//53 28//53
f 30//54 35//54 28//54
f 34//55 29//55 27//55
f 10//56 26//56 32//56
f 24//57 30//57 31//57
f 31//58 34//58 37//58
f 23//59 10//59 36//59
f 4//60 35//60 30//60
f 10//61 32//61 33//61
f 32//62 31//62 37//62
f 34//63 31//63 38//63
f 2//64 41//64 42//64
f 3//65 42//65 43//65
f 44//66 45//66 7//66
f 45//67 39//67 9//67
f 39//68 40//68 1//68
f 46//69 48//69 47//69
f 39//70 45//70 47//70
usemtl Material.001
f 11//71 44//71 43//71
f 40//72 23//72 41//72
f 24//73 15//73 16//73
f 13//74 21//74 18//74
f 34//75 28//75 29//75
f 33//76 27//76 36//76
f 32//77 37//77 33//77
f 8//78 26//78 46//78
f 11//79 13//79 14//79
f 13//80 18//80 14//80
f 18//81 17//81 20//81 49//81
f 16//82 17//82 22//82
f 26//83 8//83 31//83
f 23//84 36//84 35//84
f 30//85 34//85 38//85
f 1//86 40//86 41//86
f 5//87 43//87 44//87
f 46//88 39//88 48//88
